<?xml version="1.0" encoding="utf-8"?>
<svg version="1.1" xmlns:xlink="http://www.w3.org/1999/xlink" width="20px" height="12px" xmlns="http://www.w3.org/2000/svg">
  <g transform="matrix(1 0 0 1 -531 -610 )">
    <path d="M 2.5 0.6000000000000005  L 2.5 7  L 19.375 7  C 19.544270833333336 7.199999999999999  19.690755208333336 7.259374999999999  19.814453125 7.378125000000001  C 19.938151041666668 7.496875  20 7.637499999999999  20 7.800000000000001  L 20 12  L 17.5 12  L 17.5 9.600000000000001  L 2.5 9.600000000000001  L 2.5 12  L 0 12  L 0 0.6000000000000005  C 0 0.4374999999999991  0.06184895833333333 0.2968749999999991  0.185546875 0.17812500000000053  C 0.3092447916666667 0.05937499999999929  0.45572916666666674 0  0.625 0  L 1.875 0  C 2.0442708333333335 0  2.1907552083333335 0.05937499999999929  2.314453125 0.17812500000000053  C 2.438151041666667 0.2968749999999991  2.5 0.4374999999999991  2.5 0.6000000000000005  Z M 7.392578125 5.8968750000000005  C 7.880859375 5.4281250000000005  8.125 4.862499999999999  8.125 4.199999999999999  C 8.125 3.5374999999999988  7.880859375 2.9718750000000003  7.392578125 2.5031250000000003  C 6.904296875 2.0343750000000003  6.315104166666668 1.8000000000000003  5.625 1.8000000000000003  C 4.934895833333334 1.8000000000000003  4.345703125 2.0343750000000003  3.857421875 2.5031250000000003  C 3.369140625 2.9718750000000003  3.125 3.5374999999999988  3.125 4.199999999999999  C 3.125 4.862499999999999  3.369140625 5.4281250000000005  3.857421875 5.8968750000000005  C 4.345703125 6.3656250000000005  4.934895833333334 6.6000000000000005  5.625 6.6000000000000005  C 6.315104166666668 6.6000000000000005  6.904296875 6.3656250000000005  7.392578125 5.8968750000000005  Z M 8.75 6.6000000000000005  L 20 6.6000000000000005  L 20 6  C 20 5.0062500000000005  19.6337890625 4.1578124999999995  18.9013671875 3.4546874999999995  C 18.1689453125 2.7515624999999995  17.28515625 2.3999999999999995  16.25 2.3999999999999995  L 9.375 2.3999999999999995  C 9.205729166666668 2.3999999999999995  9.059244791666668 2.4593749999999988  8.935546875 2.578125  C 8.811848958333334 2.696875  8.75 2.8375  8.75 3  L 8.75 6.6000000000000005  Z " fill-rule="nonzero" fill="#7f7f7f" stroke="none" transform="matrix(1 0 0 1 531 610 )" />
  </g>
</svg>