<?xml version="1.0" encoding="utf-8"?>
<svg version="1.1" xmlns:xlink="http://www.w3.org/1999/xlink" width="9px" height="15px" xmlns="http://www.w3.org/2000/svg">
  <g transform="matrix(1 0 0 1 -524 -335 )">
    <path d="M 8.5078125 4.568181818181818  C 8.8359375 4.886363636363635  9 5.272727272727272  9 5.7272727272727275  L 9 9.272727272727273  C 9 9.5  8.91796875 9.693181818181818  8.75390625 9.852272727272727  C 8.58984375 10.011363636363635  8.390625 10.090909090909092  8.15625 10.090909090909092  C 7.921875000000002 10.090909090909092  7.722656250000001 10.011363636363635  7.55859375 9.852272727272727  C 7.39453125 9.693181818181818  7.3125 9.5  7.3125 9.272727272727273  L 7.3125 6.272727272727273  L 6.75 6.272727272727273  L 6.75 14.045454545454547  C 6.75 14.306818181818183  6.6533203125 14.53125  6.4599609375 14.71875  C 6.2666015625 14.90625  6.035156250000001 15  5.765625 15  C 5.49609375 15  5.2646484375 14.90625  5.0712890625 14.71875  C 4.8779296875 14.53125  4.78125 14.306818181818183  4.78125 14.045454545454547  L 4.78125 10.090909090909092  L 4.21875 10.090909090909092  L 4.21875 14.045454545454547  C 4.218750000000001 14.306818181818183  4.122070312500001 14.53125  3.9287109375 14.71875  C 3.7353515625000004 14.90625  3.503906250000001 15  3.234375 15  C 2.9648437500000004 15  2.7333984375 14.90625  2.5400390625 14.71875  C 2.3466796875 14.53125  2.25 14.306818181818183  2.25 14.045454545454547  L 2.25 6.272727272727273  L 1.6875 6.272727272727273  L 1.6875 9.272727272727273  C 1.6875 9.5  1.60546875 9.693181818181818  1.44140625 9.852272727272727  C 1.27734375 10.011363636363635  1.078125 10.090909090909092  0.84375 10.090909090909092  C 0.6093750000000001 10.090909090909092  0.41015625000000006 10.011363636363635  0.24609375 9.852272727272727  C 0.08203124999999999 9.693181818181818  0 9.5  0 9.272727272727273  L 0 5.7272727272727275  C 0 5.272727272727272  0.16406249999999997 4.886363636363635  0.4921875 4.568181818181818  C 0.8203125000000001 4.249999999999998  1.2187500000000002 4.090909090909091  1.6875 4.090909090909091  L 7.3125 4.090909090909091  C 7.781250000000002 4.090909090909091  8.1796875 4.249999999999998  8.5078125 4.568181818181818  Z M 5.89306640625 0.5582386363636366  C 6.276855468750001 0.9303977272727254  6.46875 1.3806818181818181  6.46875 1.9090909090909096  C 6.46875 2.4374999999999996  6.276855468750001 2.887784090909091  5.89306640625 3.259943181818181  C 5.50927734375 3.6321022727272716  5.044921875 3.818181818181818  4.5 3.818181818181818  C 3.955078125 3.818181818181818  3.49072265625 3.6321022727272716  3.10693359375 3.259943181818181  C 2.7231445312500004 2.887784090909091  2.53125 2.4374999999999996  2.53125 1.9090909090909096  C 2.53125 1.3806818181818181  2.7231445312500004 0.9303977272727254  3.10693359375 0.5582386363636366  C 3.49072265625 0.18607954545454441  3.955078125 0  4.5 0  C 5.044921875 0  5.50927734375 0.18607954545454441  5.89306640625 0.5582386363636366  Z " fill-rule="nonzero" fill="#7f7f7f" stroke="none" transform="matrix(1 0 0 1 524 335 )" />
  </g>
</svg>