<?xml version="1.0" encoding="utf-8"?>
<svg version="1.1" xmlns:xlink="http://www.w3.org/1999/xlink" width="15px" height="15px" xmlns="http://www.w3.org/2000/svg">
  <g transform="matrix(1 0 0 1 -540 -336 )">
    <path d="M 13.849051339285715 13.849051339285715  C 13.90206473214286 13.796037946428573  13.928571428571429 13.733258928571429  13.928571428571429 13.660714285714285  L 13.928571428571429 4.553571428571429  C 13.928571428571429 4.481026785714285  13.90206473214286 4.418247767857142  13.849051339285715 4.365234375  C 13.796037946428573 4.312220982142856  13.733258928571429 4.285714285714286  13.660714285714285 4.285714285714286  L 4.553571428571428 4.285714285714286  C 4.4810267857142865 4.285714285714286  4.418247767857143 4.312220982142856  4.365234375 4.365234375  C 4.312220982142858 4.418247767857142  4.285714285714286 4.481026785714285  4.285714285714286 4.553571428571429  L 4.285714285714286 13.660714285714285  C 4.285714285714286 13.733258928571429  4.312220982142858 13.796037946428573  4.365234375 13.849051339285715  C 4.418247767857143 13.902064732142858  4.4810267857142865 13.928571428571429  4.553571428571428 13.928571428571429  L 13.660714285714285 13.928571428571429  C 13.733258928571429 13.928571428571429  13.796037946428573 13.902064732142858  13.849051339285715 13.849051339285715  Z M 14.606584821428571 3.6077008928571437  C 14.86886160714286 3.869977678571428  15 4.185267857142857  15 4.553571428571429  L 15 13.660714285714285  C 15 14.029017857142856  14.86886160714286 14.344308035714286  14.606584821428571 14.606584821428571  C 14.344308035714288 14.868861607142858  14.02901785714286 15  13.660714285714285 15  L 4.553571428571428 15  C 4.185267857142858 15  3.869977678571429 14.868861607142858  3.607700892857143 14.606584821428571  C 3.3454241071428568 14.344308035714286  3.214285714285714 14.029017857142856  3.214285714285714 13.660714285714285  L 3.214285714285714 4.553571428571429  C 3.214285714285714 4.185267857142857  3.3454241071428568 3.869977678571428  3.607700892857143 3.6077008928571437  C 3.869977678571429 3.345424107142856  4.185267857142858 3.2142857142857144  4.553571428571428 3.2142857142857144  L 13.660714285714285 3.2142857142857144  C 14.02901785714286 3.2142857142857144  14.344308035714288 3.345424107142856  14.606584821428571 3.6077008928571437  Z M 11.392299107142856 0.39341517857142905  C 11.654575892857144 0.6556919642857134  11.785714285714285 0.9709821428571436  11.785714285714285 1.3392857142857144  L 11.785714285714285 2.678571428571429  L 10.714285714285715 2.678571428571429  L 10.714285714285715 1.3392857142857144  C 10.714285714285715 1.2667410714285716  10.687779017857144 1.203962053571428  10.634765625 1.1509486607142856  C 10.581752232142858 1.0979352678571415  10.518973214285715 1.071428571428571  10.446428571428571 1.071428571428571  L 1.3392857142857144 1.071428571428571  C 1.2667410714285716 1.071428571428571  1.2039620535714286 1.0979352678571415  1.1509486607142856 1.1509486607142856  C 1.097935267857143 1.203962053571428  1.0714285714285714 1.2667410714285716  1.0714285714285714 1.3392857142857144  L 1.0714285714285714 10.446428571428571  C 1.0714285714285714 10.518973214285714  1.097935267857143 10.581752232142856  1.1509486607142856 10.634765625  C 1.2039620535714286 10.687779017857142  1.2667410714285716 10.714285714285715  1.3392857142857144 10.714285714285715  L 2.678571428571429 10.714285714285715  L 2.678571428571429 11.785714285714285  L 1.3392857142857144 11.785714285714285  C 0.9709821428571429 11.785714285714285  0.6556919642857143 11.654575892857142  0.3934151785714286 11.392299107142858  C 0.13113839285714285 11.130022321428571  0 10.814732142857142  0 10.446428571428571  L 0 1.3392857142857144  C 0 0.9709821428571436  0.13113839285714285 0.6556919642857134  0.3934151785714286 0.39341517857142905  C 0.6556919642857143 0.13113839285714302  0.9709821428571429 0  1.3392857142857144 0  L 10.446428571428571 0  C 10.814732142857144 0  11.130022321428573 0.13113839285714302  11.392299107142856 0.39341517857142905  Z " fill-rule="nonzero" fill="#000000" stroke="none" transform="matrix(1 0 0 1 540 336 )" />
  </g>
</svg>